Coordinates
version=1
nRows=16
nColumns=40
inDegrees=yes

Units are S.I. units (second, meters, Newtons, ...)
Angles are in degrees.

endheader
time	pelvis_tilt	pelvis_list	pelvis_rotation	pelvis_tx	pelvis_ty	pelvis_tz	hip_flexion_r	hip_adduction_r	hip_rotation_r	knee_angle_r	knee_angle_r_beta	ankle_angle_r	subtalar_angle_r	mtp_angle_r	hip_flexion_l	hip_adduction_l	hip_rotation_l	knee_angle_l	knee_angle_l_beta	ankle_angle_l	subtalar_angle_l	mtp_angle_l	lumbar_extension	lumbar_bending	lumbar_rotation	arm_flex_r	arm_add_r	arm_rot_r	elbow_flex_r	pro_sup_r	wrist_flex_r	wrist_dev_r	arm_flex_l	arm_add_l	arm_rot_l	elbow_flex_l	pro_sup_l	wrist_flex_l	wrist_dev_l
     39.64500000	     -5.91979240	     -5.11098092	      3.51521606	      1.06294566	      0.91280233	      0.44665190	     -0.18234298	     -1.87185064	    -15.06190654	     26.93382688	     26.93382688	     15.13123068	     -1.25037905	    -11.94133473	     31.45561828	     -5.58787400	      0.28607775	     29.85159754	     29.85159754	      7.61658018	    -15.88450386	      7.93539890	     -9.94059961	      4.68227935	      4.65462640	     38.12195875	    -14.34628562	     -0.20780131	    108.32893334	     43.81740368	      0.00000000	      0.00000000	    -13.67214800	     -7.40399464	     -4.32678752	     26.43981995	     45.62300918	      0.00000000	      0.00000000
     39.65657143	     -5.86054217	     -5.07187880	      3.42723394	      1.06373318	      0.91427580	      0.44355659	      0.73193008	     -2.49905982	    -14.56234116	     29.52021409	     29.52021409	     12.53196841	     -3.28883656	    -15.94816796	     30.68532559	     -5.43271603	      0.13678245	     29.84090515	     29.84090515	      8.41562038	    -15.81938994	      8.11038798	     -9.91454823	      4.72148261	      4.77768094	     36.51706882	    -14.69843990	      0.14758387	    109.33813349	     43.84563548	      0.00000000	      0.00000000	    -12.95990125	     -7.30361100	     -4.32520154	     27.45934659	     45.65971337	      0.00000000	      0.00000000
     39.66814286	     -5.68911721	     -4.97988613	      3.33343620	      1.06452390	      0.91590969	      0.44049069	      1.74443192	     -3.31944027	    -14.32576420	     32.63847458	     32.63847458	     11.05264406	     -4.02258926	    -16.38508265	     29.68950812	     -5.26311393	     -0.14083025	     29.64952798	     29.64952798	      9.03370174	    -15.62162052	      7.86825125	     -9.97906654	      4.69326616	      4.44600759	     35.17541660	    -14.41261348	      0.47602077	    109.11126728	     43.84467942	      0.00000000	      0.00000000	    -12.13307854	     -7.12575313	     -4.30633371	     27.87663702	     45.67271996	      0.00000000	      0.00000000
     39.67971429	     -5.75846620	     -4.89973552	      3.17390677	      1.06502112	      0.91711185	      0.43769034	      3.24555352	     -4.09057665	    -13.85959193	     35.99766711	     35.99766711	      9.22748292	     -5.36378684	    -16.84885082	     28.92836781	     -5.12447186	     -0.49662789	     29.37298335	     29.37298335	      9.52506539	    -15.40544703	      7.62704982	     -9.77305596	      4.64117982	      4.21339213	     33.65248683	    -14.46846656	      0.75798024	    108.92630637	     43.84664498	      0.00000000	      0.00000000	    -11.38684829	     -7.06057519	     -4.39912093	     28.54208793	     45.70215281	      0.00000000	      0.00000000
     39.69128571	     -5.73249063	     -4.87354023	      3.05252203	      1.06538052	      0.91832897	      0.43500682	      4.71623480	     -4.72294490	    -13.31432332	     39.32932447	     39.32932447	      7.20792232	     -6.89094213	    -17.02837014	     28.10286924	     -5.03755928	     -0.79415521	     29.12298260	     29.12298260	     10.00721981	    -15.17935841	      7.34602862	     -9.71248467	      4.65202948	      4.04970617	     31.95180858	    -14.56859176	      1.01228269	    108.62559853	     43.85251542	      0.00000000	      0.00000000	    -10.55648137	     -7.01140808	     -4.55740924	     29.41431109	     45.74207553	      0.00000000	      0.00000000
     39.70285714	     -5.73036044	     -4.85648679	      2.89781504	      1.06555628	      0.91937170	      0.43252343	      6.33027868	     -5.27191589	    -12.66691144	     42.68365787	     42.68365787	      5.13601078	     -8.65292873	    -16.79865927	     27.31991944	     -4.98227654	     -1.10499159	     28.88433100	     28.88433100	     10.46673208	    -14.91457176	      7.01096815	     -9.64913530	      4.67403473	      3.93383670	     30.12469794	    -14.74061169	      1.17769582	    108.13490975	     43.86779978	      0.00000000	      0.00000000	     -9.69165747	     -7.00158292	     -4.79220784	     30.48914810	     45.79330166	      0.00000000	      0.00000000
     39.71442857	     -5.67155611	     -4.83353581	      2.75138668	      1.06561471	      0.92033571	      0.43016317	      7.93636204	     -5.79885132	    -12.10860800	     45.98516144	     45.98516144	      3.17546362	    -10.26012973	    -16.15382913	     26.50411522	     -4.93282515	     -1.44708306	     28.67955629	     28.67955629	     10.92411864	    -14.67605831	      6.68208459	     -9.66590713	      4.68327026	      3.78071797	     28.24463716	    -14.83107796	      1.32770236	    107.40219430	     43.88851343	      0.00000000	      0.00000000	     -8.73601635	     -7.03594410	     -5.02316102	     31.55444701	     45.84386703	      0.00000000	      0.00000000
     39.72600000	     -5.63019369	     -4.81057922	      2.58122048	      1.06545521	      0.92115331	      0.42794726	      9.63278996	     -6.26443412	    -11.53826821	     49.19303042	     49.19303042	      1.38943143	    -11.88109040	    -15.11126507	     25.73542931	     -4.89028282	     -1.76896985	     28.49583891	     28.49583891	     11.35455814	    -14.43912522	      6.35285206	     -9.68057723	      4.69310042	      3.64677273	     26.30047131	    -14.94986098	      1.41692006	    106.38493235	     43.91887286	      0.00000000	      0.00000000	     -7.70309326	     -7.10508830	     -5.26952132	     32.68078786	     45.89671986	      0.00000000	      0.00000000
     39.73757143	     -5.61775646	     -4.80716328	      2.37580785	      1.06510758	      0.92185216	      0.42594950	     11.41905894	     -6.62091445	    -10.92779006	     52.26514181	     52.26514181	     -0.09812629	    -13.46977919	    -13.63503429	     25.00995059	     -4.88453777	     -2.10727125	     28.31147356	     28.31147356	     11.76968107	    -14.20021872	      6.00884524	     -9.67571304	      4.71216184	      3.59378776	     24.30961798	    -15.12656954	      1.38805352	    105.01203665	     43.96450044	      0.00000000	      0.00000000	     -6.63219514	     -7.20874181	     -5.55502212	     33.92604721	     45.95480030	      0.00000000	      0.00000000
     39.74914286	     -5.57594597	     -4.93173851	      2.15903307	      1.06455173	      0.92249482	      0.42415294	     13.42538491	     -6.79569992	    -10.35558261	     55.66850846	     55.66850846	      1.08315566	    -13.30240646	     -5.34171302	     24.28628708	     -5.03916616	     -2.43027513	     28.12545781	     28.12545781	     11.91705763	    -13.99836084	      4.85804936	     -9.77458754	      4.82979730	      3.25837455	     22.68409759	    -14.88206657	      0.92662649	    102.63993250	     44.14683777	      0.00000000	      0.00000000	     -6.33333441	     -7.19118002	     -7.05652409	     37.18981565	     46.17783020	      0.00000000	      0.00000000
     39.76071429	     -5.55686371	     -4.89891346	      1.90256385	      1.06385149	      0.92310665	      0.42242518	     15.19274939	     -7.12543001	     -9.92125039	     58.18587403	     58.18587403	     -0.01329601	    -14.60294582	     -4.64516155	     23.55346350	     -5.01163213	     -2.76816612	     27.91042664	     27.91042664	     12.34827417	    -13.80247363	      4.66366693	     -9.84864012	      4.80878057	      3.20304339	     20.74546804	    -15.06379767	      1.02309457	    100.79203813	     44.20434434	      0.00000000	      0.00000000	     -4.92919419	     -7.35904362	     -7.17449871	     37.95871949	     46.21513398	      0.00000000	      0.00000000
     39.77228571	     -5.53177100	     -4.88586562	      1.59981667	      1.06302218	      0.92372879	      0.42091636	     16.94870010	     -7.37896296	     -9.52490954	     60.41785569	     60.41785569	     -0.68425196	    -15.70486298	     -3.75017706	     22.82561806	     -5.03470843	     -3.16864747	     27.70966079	     27.70966079	     12.75953392	    -13.57858417	      4.44707816	     -9.93374591	      4.79894137	      3.24694356	     18.81805167	    -15.20658961	      0.93308980	     98.44270109	     44.28311961	      0.00000000	      0.00000000	     -3.47426387	     -7.55592694	     -7.28463342	     38.89239820	     46.25250618	      0.00000000	      0.00000000
     39.78385714	     -5.46426197	     -4.97658246	      1.31327745	      1.06206964	      0.92444434	      0.41964764	     18.68938512	     -7.48112894	     -9.25121163	     62.46035937	     62.46035937	     -0.26600342	    -16.15696057	     -0.72785927	     22.07367660	     -5.20311759	     -3.62587563	     27.51230076	     27.51230076	     13.17023263	    -13.19192628	      4.00093915	    -10.05509659	      4.87089062	      2.92327242	     17.58455800	    -14.49782601	      0.06107830	     94.28746088	     44.47093922	      0.00000000	      0.00000000	     -2.28492807	     -7.87611749	     -7.30840755	     40.25888686	     46.28292211	      0.00000000	      0.00000000
     39.79542857	     -5.46630793	     -4.93752950	      0.94583397	      1.06097302	      0.92507169	      0.41848556	     20.43969156	     -7.70847674	     -8.97997126	     64.04413112	     64.04413112	     -0.38986873	    -16.74832263	     -0.26668154	     21.32135236	     -5.21086114	     -4.08330924	     27.19225171	     27.19225171	     13.54385057	    -13.00039251	      3.84815520	    -10.19402431	      4.81971062	      3.07178036	     15.65517331	    -14.87253646	      0.26589870	     92.01731853	     44.53666317	      0.00000000	      0.00000000	     -0.70546451	     -8.11898307	     -7.37039232	     41.24745572	     46.31563836	      0.00000000	      0.00000000
     39.80700000	     -5.41059374	     -5.01544951	      0.60602359	      1.05981027	      0.92585064	      0.41757745	     22.08824901	     -7.73543292	     -8.79423447	     65.27883565	     65.27883565	      0.06143922	    -16.95421302	      1.37221870	     20.53200346	     -5.37983398	     -4.58613579	     26.89756381	     26.89756381	     13.89293486	    -12.57833962	      3.45409309	    -10.33472395	      4.84819839	      2.80480386	     14.61394479	    -14.35668778	     -0.20736716	     87.52373505	     44.71433385	      0.00000000	      0.00000000	      0.66380332	     -8.59018920	     -7.06483670	     42.41707639	     46.31367987	      0.00000000	      0.00000000
     39.81857143	     -5.41658107	     -4.99103865	      0.22836686	      1.05849072	      0.92657373	      0.41672683	     23.72815327	     -7.83942206	     -8.60962414	     66.07320852	     66.07320852	      0.23034419	    -17.16527244	      1.53405100	     19.74959322	     -5.41426405	     -5.11734847	     26.47148859	     26.47148859	     14.20415096	    -12.29720683	      3.32235104	    -10.55351271	      4.84924994	      3.06715225	     12.78520562	    -14.70666368	     -0.05452118	     84.88205229	     44.79267002	      0.00000000	      0.00000000	      2.37866074	     -8.89640962	     -7.06187191	     43.48304764	     46.34313298	      0.00000000	      0.00000000
